<svg width="112" height="70" viewBox="0 0 112 70" fill="none" xmlns="http://www.w3.org/2000/svg">
<path d="M8.864 66C8.68267 66 8.38933 65.7867 7.984 65.36C7.58933 64.9333 7.104 64.3253 6.528 63.536C5.96267 62.736 5.328 61.7867 4.624 60.688L5.52 60.4C6.42667 61.744 7.19467 62.8107 7.824 63.6C8.464 64.3787 9.024 64.944 9.504 65.296C9.99467 65.6373 10.464 65.808 10.912 65.808C10.944 65.808 10.96 65.84 10.96 65.904C10.96 65.968 10.944 66 10.912 66C10.3787 66 9.94133 66 9.6 66C9.26933 66 9.024 66 8.864 66ZM4.512 55.952C5.38667 55.952 6.05333 56.1333 6.512 56.496C6.98133 56.848 7.216 57.3333 7.216 57.952C7.216 58.3573 7.12533 58.7413 6.944 59.104C6.76267 59.456 6.51733 59.7707 6.208 60.048C5.89867 60.3147 5.536 60.528 5.12 60.688C4.71467 60.848 4.288 60.928 3.84 60.928C3.73333 60.928 3.61067 60.928 3.472 60.928C3.344 60.9173 3.22667 60.9067 3.12 60.896V64.704C3.12 65.0133 3.14667 65.248 3.2 65.408C3.264 65.568 3.392 65.6747 3.584 65.728C3.78667 65.7813 4.08533 65.808 4.48 65.808C4.512 65.808 4.528 65.84 4.528 65.904C4.528 65.968 4.512 66 4.48 66C4.224 66 3.936 65.9947 3.616 65.984C3.30667 65.9733 2.96533 65.968 2.592 65.968C2.24 65.968 1.89867 65.9733 1.568 65.984C1.248 65.9947 0.954667 66 0.688 66C0.666667 66 0.656 65.968 0.656 65.904C0.656 65.84 0.666667 65.808 0.688 65.808C1.08267 65.808 1.376 65.7813 1.568 65.728C1.77067 65.6747 1.90933 65.568 1.984 65.408C2.05867 65.248 2.096 65.0133 2.096 64.704V57.296C2.096 56.9867 2.05867 56.7573 1.984 56.608C1.92 56.448 1.792 56.3413 1.6 56.288C1.408 56.224 1.11467 56.192 0.72 56.192C0.688 56.192 0.672 56.16 0.672 56.096C0.672 56.032 0.688 56 0.72 56C0.976 56 1.264 56.0107 1.584 56.032C1.904 56.0427 2.24 56.048 2.592 56.048C2.86933 56.048 3.19467 56.032 3.568 56C3.94133 55.968 4.256 55.952 4.512 55.952ZM6.128 58.512C6.128 57.9253 6.03733 57.4667 5.856 57.136C5.68533 56.7947 5.456 56.5547 5.168 56.416C4.88 56.2667 4.54933 56.192 4.176 56.192C3.92 56.192 3.712 56.2133 3.552 56.256C3.392 56.2987 3.28 56.4 3.216 56.56C3.152 56.72 3.12 56.976 3.12 57.328V60.496C3.26933 60.5173 3.42933 60.5333 3.6 60.544C3.77067 60.5547 3.92533 60.56 4.064 60.56C4.8 60.56 5.328 60.4053 5.648 60.096C5.968 59.776 6.128 59.248 6.128 58.512ZM14.0684 66.192C13.407 66.192 12.8524 66.048 12.4044 65.76C11.9564 65.4613 11.6204 65.0773 11.3964 64.608C11.1724 64.1387 11.0604 63.6427 11.0604 63.12C11.0604 62.4693 11.2097 61.888 11.5084 61.376C11.8177 60.8533 12.2284 60.4427 12.7404 60.144C13.263 59.8347 13.8497 59.68 14.5004 59.68C15.087 59.68 15.535 59.824 15.8444 60.112C16.1644 60.3893 16.3244 60.7733 16.3244 61.264C16.3244 61.3813 16.3137 61.472 16.2924 61.536C16.271 61.6 16.2177 61.632 16.1324 61.632H15.2044C15.247 61.1093 15.151 60.7093 14.9164 60.432C14.6924 60.144 14.3724 60 13.9564 60C13.359 60 12.9004 60.224 12.5804 60.672C12.271 61.12 12.1164 61.728 12.1164 62.496C12.1164 63.104 12.2124 63.6427 12.4044 64.112C12.607 64.5813 12.895 64.9547 13.2684 65.232C13.6524 65.4987 14.1057 65.632 14.6284 65.632C14.9057 65.632 15.1884 65.5893 15.4764 65.504C15.7644 65.4187 16.0364 65.2853 16.2924 65.104C16.3137 65.0827 16.3404 65.0987 16.3724 65.152C16.415 65.1947 16.4257 65.232 16.4044 65.264C16.0204 65.5947 15.6364 65.8347 15.2524 65.984C14.8684 66.1227 14.4737 66.192 14.0684 66.192ZM11.8284 61.664L11.8124 61.456L15.4604 61.376V61.632L11.8284 61.664ZM18.6156 60.8C18.6156 61.0773 18.685 61.312 18.8236 61.504C18.973 61.696 19.1543 61.8613 19.3676 62C19.5916 62.128 19.8263 62.256 20.0716 62.384C20.349 62.5227 20.6103 62.672 20.8556 62.832C21.101 62.9813 21.3036 63.168 21.4636 63.392C21.6236 63.6053 21.7036 63.888 21.7036 64.24C21.7036 64.5813 21.6183 64.9013 21.4476 65.2C21.277 65.488 21.021 65.7227 20.6796 65.904C20.349 66.0853 19.9383 66.176 19.4476 66.176C19.181 66.176 18.925 66.1387 18.6796 66.064C18.4343 66 18.1783 65.8773 17.9116 65.696C17.8903 65.6747 17.869 65.648 17.8476 65.616C17.8263 65.584 17.8156 65.5467 17.8156 65.504L17.7836 64.256C17.7836 64.224 17.8103 64.208 17.8636 64.208C17.9276 64.1973 17.965 64.208 17.9756 64.24C18.1036 64.6027 18.2636 64.9067 18.4556 65.152C18.6476 65.3867 18.8663 65.568 19.1116 65.696C19.357 65.8133 19.6183 65.872 19.8956 65.872C20.237 65.872 20.4983 65.7867 20.6796 65.616C20.8716 65.4453 20.9623 65.1947 20.9516 64.864C20.941 64.5547 20.861 64.304 20.7116 64.112C20.5623 63.92 20.3756 63.76 20.1516 63.632C19.9383 63.4933 19.7143 63.3653 19.4796 63.248C19.213 63.12 18.957 62.9867 18.7116 62.848C18.477 62.6987 18.2796 62.512 18.1196 62.288C17.9703 62.064 17.8956 61.7707 17.8956 61.408C17.8956 60.992 18.0023 60.656 18.2156 60.4C18.429 60.1333 18.701 59.9413 19.0316 59.824C19.3623 59.696 19.709 59.632 20.0716 59.632C20.2743 59.632 20.4716 59.648 20.6636 59.68C20.8556 59.712 21.0476 59.776 21.2396 59.872C21.3356 59.904 21.3836 59.9627 21.3836 60.048C21.3836 60.2187 21.3783 60.4 21.3676 60.592C21.357 60.7733 21.3516 60.9813 21.3516 61.216C21.3516 61.2373 21.3196 61.248 21.2556 61.248C21.1916 61.248 21.1596 61.2373 21.1596 61.216C21.1596 60.9707 21.0743 60.752 20.9036 60.56C20.733 60.368 20.5196 60.2187 20.2636 60.112C20.0076 59.9947 19.7516 59.936 19.4956 59.936C19.2396 59.936 19.0263 60.0053 18.8556 60.144C18.6956 60.2827 18.6156 60.5013 18.6156 60.8ZM25.4299 66.192C25.1739 66.192 24.9285 66.1493 24.6939 66.064C24.4592 65.9893 24.2672 65.856 24.1179 65.664C23.9685 65.472 23.8939 65.2107 23.8939 64.88V61.12C23.8939 60.864 23.8779 60.672 23.8459 60.544C23.8139 60.416 23.7392 60.336 23.6219 60.304C23.5045 60.2613 23.3232 60.24 23.0779 60.24C23.0352 60.24 23.0139 60.208 23.0139 60.144C23.0139 60.0693 23.0352 60.032 23.0779 60.032C23.5045 60.0213 23.8512 59.904 24.1179 59.68C24.3952 59.456 24.5499 59.168 24.5819 58.816C24.5819 58.784 24.6192 58.768 24.6939 58.768C24.7792 58.768 24.8219 58.784 24.8219 58.816V64.336C24.8219 64.7733 24.9285 65.0987 25.1419 65.312C25.3659 65.5253 25.6805 65.632 26.0859 65.632C26.3632 65.632 26.6085 65.5893 26.8219 65.504C27.0459 65.408 27.2272 65.3013 27.3659 65.184C27.4085 65.1627 27.4459 65.1787 27.4779 65.232C27.5205 65.2747 27.5205 65.312 27.4779 65.344C27.0832 65.6427 26.7259 65.8613 26.4059 66C26.0965 66.128 25.7712 66.192 25.4299 66.192ZM26.9819 60.608C26.5659 60.5013 26.1659 60.432 25.7819 60.4C25.3979 60.368 24.9872 60.352 24.5499 60.352V60C24.9765 60 25.3872 59.984 25.7819 59.952C26.1765 59.92 26.5979 59.8827 27.0459 59.84C27.0672 59.84 27.0885 59.8773 27.1099 59.952C27.1419 60.0267 27.1579 60.1173 27.1579 60.224C27.1579 60.2987 27.1365 60.384 27.0939 60.48C27.0619 60.576 27.0245 60.6187 26.9819 60.608ZM30.7401 66.128C30.2175 66.128 29.8015 65.9627 29.4921 65.632C29.1935 65.2907 29.0441 64.8 29.0441 64.16V61.712C29.0441 61.296 29.0068 60.9973 28.9321 60.816C28.8681 60.624 28.7455 60.528 28.5641 60.528C28.4148 60.528 28.2335 60.5813 28.0201 60.688C27.9775 60.6987 27.9401 60.672 27.9081 60.608C27.8868 60.544 27.8975 60.5067 27.9401 60.496L29.7161 59.696C29.7375 59.6853 29.7588 59.68 29.7801 59.68C29.8121 59.68 29.8441 59.696 29.8761 59.728C29.9188 59.7493 29.9401 59.776 29.9401 59.808V63.632C29.9401 64.2613 30.0521 64.7307 30.2761 65.04C30.5001 65.3387 30.8361 65.488 31.2841 65.488C31.6895 65.488 32.0948 65.3653 32.5001 65.12C32.9161 64.8747 33.2788 64.544 33.5881 64.128L33.6681 64.304C33.1775 64.9333 32.6921 65.3973 32.2121 65.696C31.7428 65.984 31.2521 66.128 30.7401 66.128ZM34.1801 59.808V64.288C34.1801 64.6507 34.2228 64.912 34.3081 65.072C34.3935 65.232 34.5375 65.312 34.7401 65.312C34.8468 65.312 34.9641 65.296 35.0921 65.264C35.2308 65.2213 35.3961 65.1627 35.5881 65.088C35.6415 65.0667 35.6788 65.088 35.7001 65.152C35.7215 65.2053 35.7108 65.2427 35.6681 65.264L33.7961 66.144C33.7748 66.1547 33.7535 66.16 33.7321 66.16C33.6468 66.16 33.5508 66.048 33.4441 65.824C33.3375 65.5893 33.2841 65.2587 33.2841 64.832V61.712C33.2841 61.296 33.2468 60.9973 33.1721 60.816C33.1081 60.624 32.9855 60.528 32.8041 60.528C32.6548 60.528 32.4735 60.5813 32.2601 60.688C32.2175 60.6987 32.1855 60.672 32.1641 60.608C32.1428 60.544 32.1535 60.5067 32.1961 60.496L33.9721 59.696C33.9935 59.6853 34.0095 59.68 34.0201 59.68C34.0521 59.68 34.0841 59.696 34.1161 59.728C34.1588 59.7493 34.1801 59.776 34.1801 59.808ZM38.0068 61.664L37.9428 61.488C38.3374 61.008 38.6628 60.64 38.9188 60.384C39.1748 60.1173 39.3934 59.936 39.5748 59.84C39.7668 59.7333 39.9481 59.68 40.1188 59.68C40.3428 59.68 40.5614 59.744 40.7748 59.872C40.9988 60 41.1108 60.1547 41.1108 60.336C41.1108 60.4747 41.0628 60.592 40.9668 60.688C40.8814 60.784 40.7534 60.832 40.5828 60.832C40.4441 60.832 40.3268 60.7893 40.2308 60.704C40.1348 60.6187 40.0334 60.5387 39.9268 60.464C39.8201 60.3893 39.6814 60.352 39.5108 60.352C39.4148 60.352 39.3134 60.3787 39.2068 60.432C39.1001 60.4853 38.9561 60.608 38.7748 60.8C38.5934 60.9813 38.3374 61.2693 38.0068 61.664ZM36.4388 66C36.4068 66 36.3908 65.968 36.3908 65.904C36.3908 65.84 36.4068 65.808 36.4388 65.808C36.8548 65.808 37.1214 65.7387 37.2388 65.6C37.3668 65.4507 37.4308 65.152 37.4308 64.704V61.536C37.4308 61.184 37.3881 60.928 37.3028 60.768C37.2281 60.5973 37.0841 60.512 36.8708 60.512C36.7641 60.512 36.6361 60.5333 36.4868 60.576C36.3481 60.6187 36.1881 60.6773 36.0068 60.752C35.9641 60.7627 35.9268 60.7413 35.8948 60.688C35.8734 60.6347 35.8841 60.5973 35.9268 60.576L37.7828 59.696C37.8148 59.6853 37.8468 59.68 37.8788 59.68C37.9534 59.68 38.0494 59.792 38.1668 60.016C38.2841 60.24 38.3428 60.5653 38.3428 60.992V64.704C38.3428 65.0027 38.3801 65.2373 38.4548 65.408C38.5294 65.568 38.6788 65.6747 38.9028 65.728C39.1268 65.7813 39.4574 65.808 39.8948 65.808C39.9374 65.808 39.9588 65.84 39.9588 65.904C39.9588 65.968 39.9374 66 39.8948 66C39.6388 66 39.3348 65.9947 38.9828 65.984C38.6414 65.9733 38.2788 65.968 37.8948 65.968C37.6174 65.968 37.3508 65.9733 37.0948 65.984C36.8388 65.9947 36.6201 66 36.4388 66ZM46.3053 66.096C46.2626 66.1173 46.2199 66.128 46.1773 66.128C46.0386 66.128 45.9053 66.016 45.7773 65.792C45.6493 65.5573 45.5853 65.2213 45.5853 64.784V61.92C45.5853 61.4187 45.5373 61.0293 45.4413 60.752C45.3559 60.4747 45.2333 60.2827 45.0733 60.176C44.9239 60.0693 44.7533 60.016 44.5613 60.016C44.2946 60.016 44.0759 60.0853 43.9053 60.224C43.7346 60.352 43.6066 60.5173 43.5213 60.72C43.4359 60.9227 43.3773 61.1253 43.3453 61.328C43.3346 61.4773 43.2866 61.616 43.2013 61.744C43.1266 61.872 42.9773 61.936 42.7533 61.936C42.5826 61.936 42.4493 61.8933 42.3533 61.808C42.2573 61.7227 42.2093 61.6053 42.2093 61.456C42.2093 61.264 42.3053 61.0667 42.4973 60.864C42.6893 60.6507 42.9293 60.4587 43.2173 60.288C43.5159 60.1067 43.8253 59.9627 44.1453 59.856C44.4759 59.7387 44.7853 59.68 45.0733 59.68C45.4786 59.68 45.8146 59.824 46.0813 60.112C46.3479 60.3893 46.4813 60.832 46.4813 61.44V64.272C46.4813 64.6453 46.5293 64.9173 46.6253 65.088C46.7213 65.2587 46.8759 65.344 47.0893 65.344C47.2813 65.344 47.5479 65.2747 47.8893 65.136C47.9426 65.1147 47.9799 65.136 48.0013 65.2C48.0226 65.2533 48.0066 65.2907 47.9533 65.312L46.3053 66.096ZM43.1693 66.112C42.8279 66.112 42.5719 66.0213 42.4013 65.84C42.2306 65.648 42.1453 65.4293 42.1453 65.184C42.1453 64.8853 42.2626 64.6507 42.4973 64.48C42.7319 64.2987 43.1159 64.1173 43.6493 63.936L45.7453 63.184L45.7933 63.36L43.9373 64.064C43.6919 64.16 43.5159 64.2667 43.4093 64.384C43.3133 64.5013 43.2653 64.6507 43.2653 64.832C43.2653 65.056 43.3293 65.232 43.4573 65.36C43.5853 65.4773 43.7506 65.536 43.9533 65.536C44.0706 65.536 44.1826 65.5253 44.2893 65.504C44.3959 65.472 44.5026 65.4293 44.6093 65.376L45.9693 64.688L46.0013 64.88L44.6093 65.632C44.2893 65.792 44.0226 65.9147 43.8093 66C43.5959 66.0747 43.3826 66.112 43.1693 66.112ZM53.0084 66C52.9764 66 52.9604 65.968 52.9604 65.904C52.9604 65.84 52.9764 65.808 53.0084 65.808C53.4244 65.808 53.691 65.7387 53.8084 65.6C53.9364 65.4507 54.0004 65.152 54.0004 64.704V62.112C54.0004 61.472 53.883 61.008 53.6484 60.72C53.4137 60.4213 53.0404 60.272 52.5284 60.272C52.1444 60.272 51.7497 60.3947 51.3444 60.64C50.939 60.8853 50.5924 61.2213 50.3044 61.648L50.2404 61.456C50.7097 60.8267 51.1737 60.3627 51.6324 60.064C52.1017 59.7653 52.5764 59.616 53.0564 59.616C53.643 59.616 54.0964 59.7813 54.4164 60.112C54.747 60.432 54.9124 60.9173 54.9124 61.568V64.704C54.9124 65.152 54.971 65.4507 55.0884 65.6C55.2164 65.7387 55.4884 65.808 55.9044 65.808C55.9364 65.808 55.9524 65.84 55.9524 65.904C55.9524 65.968 55.9364 66 55.9044 66C55.723 66 55.5044 65.9947 55.2484 65.984C55.003 65.9733 54.7417 65.968 54.4644 65.968C54.187 65.968 53.9204 65.9733 53.6644 65.984C53.4084 65.9947 53.1897 66 53.0084 66ZM48.7044 66C48.6724 66 48.6564 65.968 48.6564 65.904C48.6564 65.84 48.6724 65.808 48.7044 65.808C49.1204 65.808 49.387 65.7387 49.5044 65.6C49.6324 65.4507 49.6964 65.152 49.6964 64.704V61.536C49.6964 61.184 49.6537 60.928 49.5684 60.768C49.4937 60.5973 49.3497 60.512 49.1364 60.512C49.0297 60.512 48.9017 60.5333 48.7524 60.576C48.6137 60.6187 48.4537 60.6773 48.2724 60.752C48.2297 60.7627 48.1924 60.7413 48.1604 60.688C48.139 60.6347 48.1497 60.5973 48.1924 60.576L50.0484 59.696C50.0804 59.6853 50.1124 59.68 50.1444 59.68C50.219 59.68 50.315 59.792 50.4324 60.016C50.5497 60.24 50.6084 60.5653 50.6084 60.992V64.704C50.6084 65.152 50.667 65.4507 50.7844 65.6C50.9124 65.7387 51.1844 65.808 51.6004 65.808C51.6324 65.808 51.6484 65.84 51.6484 65.904C51.6484 65.968 51.6324 66 51.6004 66C51.419 66 51.2004 65.9947 50.9444 65.984C50.699 65.9733 50.4377 65.968 50.1604 65.968C49.883 65.968 49.6164 65.9733 49.3604 65.984C49.1044 65.9947 48.8857 66 48.7044 66ZM59.258 66.192C59.002 66.192 58.7567 66.1493 58.522 66.064C58.2873 65.9893 58.0953 65.856 57.946 65.664C57.7967 65.472 57.722 65.2107 57.722 64.88V61.12C57.722 60.864 57.706 60.672 57.674 60.544C57.642 60.416 57.5673 60.336 57.45 60.304C57.3327 60.2613 57.1513 60.24 56.906 60.24C56.8633 60.24 56.842 60.208 56.842 60.144C56.842 60.0693 56.8633 60.032 56.906 60.032C57.3327 60.0213 57.6793 59.904 57.946 59.68C58.2233 59.456 58.378 59.168 58.41 58.816C58.41 58.784 58.4473 58.768 58.522 58.768C58.6073 58.768 58.65 58.784 58.65 58.816V64.336C58.65 64.7733 58.7567 65.0987 58.97 65.312C59.194 65.5253 59.5087 65.632 59.914 65.632C60.1913 65.632 60.4367 65.5893 60.65 65.504C60.874 65.408 61.0553 65.3013 61.194 65.184C61.2367 65.1627 61.274 65.1787 61.306 65.232C61.3487 65.2747 61.3487 65.312 61.306 65.344C60.9113 65.6427 60.554 65.8613 60.234 66C59.9247 66.128 59.5993 66.192 59.258 66.192ZM60.81 60.608C60.394 60.5013 59.994 60.432 59.61 60.4C59.226 60.368 58.8153 60.352 58.378 60.352V60C58.8047 60 59.2153 59.984 59.61 59.952C60.0047 59.92 60.426 59.8827 60.874 59.84C60.8953 59.84 60.9167 59.8773 60.938 59.952C60.97 60.0267 60.986 60.1173 60.986 60.224C60.986 60.2987 60.9647 60.384 60.922 60.48C60.89 60.576 60.8527 60.6187 60.81 60.608ZM65.9183 63.36C65.8863 63.36 65.8649 63.3067 65.8543 63.2C65.8436 63.0827 65.8383 62.9707 65.8383 62.864C65.8489 62.7467 65.8649 62.688 65.8863 62.688L70.0623 61.936C70.0943 61.9253 70.1156 61.9787 70.1263 62.096C70.1369 62.2027 70.1369 62.3147 70.1263 62.432C70.1156 62.5387 70.0943 62.5973 70.0623 62.608L65.9183 63.36ZM83.1921 66C83.0108 66 82.7175 65.7867 82.3121 65.36C81.9175 64.9333 81.4321 64.3253 80.8561 63.536C80.2908 62.736 79.6561 61.7867 78.9521 60.688L79.8481 60.4C80.7548 61.744 81.5228 62.8107 82.1521 63.6C82.7921 64.3787 83.3521 64.944 83.8321 65.296C84.3228 65.6373 84.7921 65.808 85.2401 65.808C85.2721 65.808 85.2881 65.84 85.2881 65.904C85.2881 65.968 85.2721 66 85.2401 66C84.7068 66 84.2695 66 83.9281 66C83.5975 66 83.3521 66 83.1921 66ZM78.8401 55.952C79.7148 55.952 80.3815 56.1333 80.8401 56.496C81.3095 56.848 81.5441 57.3333 81.5441 57.952C81.5441 58.3573 81.4535 58.7413 81.2721 59.104C81.0908 59.456 80.8455 59.7707 80.5361 60.048C80.2268 60.3147 79.8641 60.528 79.4481 60.688C79.0428 60.848 78.6161 60.928 78.1681 60.928C78.0615 60.928 77.9388 60.928 77.8001 60.928C77.6721 60.9173 77.5548 60.9067 77.4481 60.896V64.704C77.4481 65.0133 77.4748 65.248 77.5281 65.408C77.5921 65.568 77.7201 65.6747 77.9121 65.728C78.1148 65.7813 78.4135 65.808 78.8081 65.808C78.8401 65.808 78.8561 65.84 78.8561 65.904C78.8561 65.968 78.8401 66 78.8081 66C78.5521 66 78.2641 65.9947 77.9441 65.984C77.6348 65.9733 77.2935 65.968 76.9201 65.968C76.5681 65.968 76.2268 65.9733 75.8961 65.984C75.5761 65.9947 75.2828 66 75.0161 66C74.9948 66 74.9841 65.968 74.9841 65.904C74.9841 65.84 74.9948 65.808 75.0161 65.808C75.4108 65.808 75.7041 65.7813 75.8961 65.728C76.0988 65.6747 76.2375 65.568 76.3121 65.408C76.3868 65.248 76.4241 65.0133 76.4241 64.704V57.296C76.4241 56.9867 76.3868 56.7573 76.3121 56.608C76.2481 56.448 76.1201 56.3413 75.9281 56.288C75.7361 56.224 75.4428 56.192 75.0481 56.192C75.0161 56.192 75.0001 56.16 75.0001 56.096C75.0001 56.032 75.0161 56 75.0481 56C75.3041 56 75.5921 56.0107 75.9121 56.032C76.2321 56.0427 76.5681 56.048 76.9201 56.048C77.1975 56.048 77.5228 56.032 77.8961 56C78.2695 55.968 78.5841 55.952 78.8401 55.952ZM80.4561 58.512C80.4561 57.9253 80.3655 57.4667 80.1841 57.136C80.0135 56.7947 79.7841 56.5547 79.4961 56.416C79.2081 56.2667 78.8775 56.192 78.5041 56.192C78.2481 56.192 78.0401 56.2133 77.8801 56.256C77.7201 56.2987 77.6081 56.4 77.5441 56.56C77.4801 56.72 77.4481 56.976 77.4481 57.328V60.496C77.5975 60.5173 77.7575 60.5333 77.9281 60.544C78.0988 60.5547 78.2535 60.56 78.3921 60.56C79.1281 60.56 79.6561 60.4053 79.9761 60.096C80.2961 59.776 80.4561 59.248 80.4561 58.512ZM88.5085 66.208C87.8792 66.208 87.3298 66.0533 86.8605 65.744C86.3912 65.4347 86.0285 65.024 85.7725 64.512C85.5165 63.9893 85.3885 63.4293 85.3885 62.832C85.3885 62.2773 85.4898 61.7973 85.6925 61.392C85.8952 60.9867 86.1672 60.656 86.5085 60.4C86.8498 60.1333 87.2178 59.936 87.6125 59.808C88.0178 59.68 88.4125 59.616 88.7965 59.616C89.4472 59.616 90.0018 59.776 90.4605 60.096C90.9298 60.416 91.2872 60.8267 91.5325 61.328C91.7778 61.8293 91.9005 62.3573 91.9005 62.912C91.9005 63.5947 91.7458 64.1813 91.4365 64.672C91.1272 65.1627 90.7165 65.5413 90.2045 65.808C89.6925 66.0747 89.1272 66.208 88.5085 66.208ZM88.9725 65.904C89.5378 65.904 89.9858 65.7067 90.3165 65.312C90.6472 64.9067 90.8125 64.256 90.8125 63.36C90.8125 62.688 90.7005 62.096 90.4765 61.584C90.2632 61.0613 89.9645 60.656 89.5805 60.368C89.1965 60.0693 88.7592 59.92 88.2685 59.92C87.7032 59.92 87.2605 60.128 86.9405 60.544C86.6205 60.96 86.4605 61.5573 86.4605 62.336C86.4605 62.9867 86.5672 63.584 86.7805 64.128C86.9938 64.672 87.2872 65.104 87.6605 65.424C88.0445 65.744 88.4818 65.904 88.9725 65.904ZM101.429 66C101.397 66 101.381 65.968 101.381 65.904C101.381 65.84 101.397 65.808 101.429 65.808C101.845 65.808 102.117 65.7387 102.245 65.6C102.373 65.4507 102.437 65.152 102.437 64.704V62.16C102.437 60.912 101.978 60.288 101.061 60.288C100.677 60.288 100.293 60.416 99.9088 60.672C99.5354 60.9173 99.2048 61.2533 98.9168 61.68L98.8528 61.488C99.3114 60.848 99.7648 60.384 100.213 60.096C100.661 59.808 101.119 59.664 101.589 59.664C102.143 59.664 102.57 59.824 102.869 60.144C103.178 60.4533 103.333 60.9387 103.333 61.6V64.704C103.333 65.152 103.391 65.4507 103.509 65.6C103.637 65.7387 103.914 65.808 104.341 65.808C104.373 65.808 104.389 65.84 104.389 65.904C104.389 65.968 104.373 66 104.341 66C104.159 66 103.941 65.9947 103.685 65.984C103.429 65.9733 103.162 65.968 102.885 65.968C102.607 65.968 102.341 65.9733 102.085 65.984C101.839 65.9947 101.621 66 101.429 66ZM97.3008 66C97.2688 66 97.2528 65.968 97.2528 65.904C97.2528 65.84 97.2688 65.808 97.3008 65.808C97.7168 65.808 97.9834 65.7387 98.1008 65.6C98.2288 65.4507 98.2928 65.152 98.2928 64.704V62.16C98.2928 60.912 97.8394 60.288 96.9328 60.288C96.5488 60.288 96.1648 60.416 95.7808 60.672C95.4074 60.9173 95.0768 61.2533 94.7888 61.68L94.7248 61.488C95.1728 60.848 95.6208 60.384 96.0688 60.096C96.5168 59.808 96.9754 59.664 97.4448 59.664C97.9994 59.664 98.4314 59.8187 98.7408 60.128C99.0501 60.4373 99.2048 60.9173 99.2048 61.568V64.704C99.2048 65.152 99.2634 65.4507 99.3808 65.6C99.5088 65.7387 99.7861 65.808 100.213 65.808C100.245 65.808 100.261 65.84 100.261 65.904C100.261 65.968 100.245 66 100.213 66C100.021 66 99.7968 65.9947 99.5408 65.984C99.2954 65.9733 99.0341 65.968 98.7568 65.968C98.4794 65.968 98.2128 65.9733 97.9568 65.984C97.7008 65.9947 97.4821 66 97.3008 66ZM93.1888 66C93.1568 66 93.1408 65.968 93.1408 65.904C93.1408 65.84 93.1568 65.808 93.1888 65.808C93.6048 65.808 93.8714 65.7387 93.9888 65.6C94.1168 65.4507 94.1808 65.152 94.1808 64.704V61.536C94.1808 61.184 94.1381 60.928 94.0528 60.768C93.9781 60.5973 93.8341 60.512 93.6208 60.512C93.5141 60.512 93.3861 60.5333 93.2368 60.576C93.0981 60.6187 92.9381 60.6773 92.7568 60.752C92.7141 60.7627 92.6768 60.7413 92.6448 60.688C92.6234 60.6347 92.6341 60.5973 92.6768 60.576L94.5328 59.696C94.5648 59.6853 94.5968 59.68 94.6288 59.68C94.7034 59.68 94.7994 59.792 94.9168 60.016C95.0341 60.24 95.0928 60.5653 95.0928 60.992V64.704C95.0928 65.152 95.1514 65.4507 95.2688 65.6C95.3968 65.7387 95.6688 65.808 96.0848 65.808C96.1168 65.808 96.1328 65.84 96.1328 65.904C96.1328 65.968 96.1168 66 96.0848 66C95.9034 66 95.6848 65.9947 95.4288 65.984C95.1834 65.9733 94.9221 65.968 94.6448 65.968C94.3674 65.968 94.1008 65.9733 93.8448 65.984C93.5888 65.9947 93.3701 66 93.1888 66ZM108.256 66.192C107.595 66.192 107.04 66.048 106.592 65.76C106.144 65.4613 105.808 65.0773 105.584 64.608C105.36 64.1387 105.248 63.6427 105.248 63.12C105.248 62.4693 105.397 61.888 105.696 61.376C106.005 60.8533 106.416 60.4427 106.928 60.144C107.451 59.8347 108.037 59.68 108.688 59.68C109.275 59.68 109.723 59.824 110.032 60.112C110.352 60.3893 110.512 60.7733 110.512 61.264C110.512 61.3813 110.501 61.472 110.48 61.536C110.459 61.6 110.405 61.632 110.32 61.632H109.392C109.435 61.1093 109.339 60.7093 109.104 60.432C108.88 60.144 108.56 60 108.144 60C107.547 60 107.088 60.224 106.768 60.672C106.459 61.12 106.304 61.728 106.304 62.496C106.304 63.104 106.4 63.6427 106.592 64.112C106.795 64.5813 107.083 64.9547 107.456 65.232C107.84 65.4987 108.293 65.632 108.816 65.632C109.093 65.632 109.376 65.5893 109.664 65.504C109.952 65.4187 110.224 65.2853 110.48 65.104C110.501 65.0827 110.528 65.0987 110.56 65.152C110.603 65.1947 110.613 65.232 110.592 65.264C110.208 65.5947 109.824 65.8347 109.44 65.984C109.056 66.1227 108.661 66.192 108.256 66.192ZM106.016 61.664L106 61.456L109.648 61.376V61.632L106.016 61.664Z" fill="#222222"/>
<path d="M37.72 50.192C36.44 50.192 35.176 49.824 33.928 49.088C32.68 48.352 31.48 47.408 30.328 46.256C29.176 45.136 28.104 43.984 27.112 42.8C26.12 41.616 25.24 40.592 24.472 39.728C23.48 38.576 22.552 37.52 21.688 36.56C20.824 35.568 19.928 34.768 19 34.16C18.072 33.552 17.016 33.248 15.832 33.248C14.84 33.248 13.848 33.456 12.856 33.872C11.896 34.256 11.048 34.816 10.312 35.552C9.576 36.256 9.064 37.088 8.776 38.048C8.68 38.432 8.584 38.8 8.488 39.152C8.392 39.504 8.232 39.824 8.008 40.112C7.784 40.432 7.464 40.592 7.048 40.592C6.728 40.592 6.424 40.464 6.136 40.208C5.816 39.952 5.656 39.616 5.656 39.2C5.656 38.816 5.768 38.448 5.992 38.096C6.856 36.72 8.088 35.168 9.688 33.44C11.32 31.68 13.16 29.856 15.208 27.968C17.256 26.08 19.352 24.224 21.496 22.4C23.64 20.544 25.672 18.832 27.592 17.264C29.544 15.664 31.208 14.304 32.584 13.184C31.08 13.152 29.56 13.136 28.024 13.136C26.52 13.104 25.016 13.088 23.512 13.088C23.032 13.088 22.36 13.12 21.496 13.184C20.664 13.248 19.816 13.392 18.952 13.616C18.088 13.84 17.368 14.208 16.792 14.72C16.216 15.232 15.96 15.92 16.024 16.784C16.056 17.04 16.152 17.392 16.312 17.84C16.472 18.256 16.568 18.512 16.6 18.608L16.12 18.992C15.928 18.64 15.688 18.24 15.4 17.792C15.112 17.312 14.856 16.848 14.632 16.4C14.408 15.952 14.28 15.616 14.248 15.392C14.248 15.328 14.232 15.248 14.2 15.152C14.2 15.056 14.2 14.96 14.2 14.864C14.2 14.512 14.264 14.16 14.392 13.808C14.52 13.424 14.744 13.088 15.064 12.8C15.576 12.352 16.312 12.064 17.272 11.936C18.264 11.808 19.272 11.744 20.296 11.744C21.096 11.744 21.848 11.76 22.552 11.792C23.288 11.824 23.88 11.84 24.328 11.84H35.512C35.544 11.84 35.56 11.888 35.56 11.984C35.56 12.08 35.528 12.224 35.464 12.416C35.4 12.608 35.336 12.736 35.272 12.8C31.24 15.712 27.256 18.912 23.32 22.4C19.416 25.856 15.672 29.52 12.088 33.392C13.048 32.88 13.944 32.512 14.776 32.288C15.64 32.064 16.456 31.952 17.224 31.952C18.568 31.952 19.816 32.288 20.968 32.96C22.152 33.6 23.304 34.512 24.424 35.696C25.576 36.88 26.776 38.24 28.024 39.776C29.304 41.28 30.6 42.688 31.912 44C33.256 45.344 34.536 46.416 35.752 47.216C36.968 48.016 38.008 48.416 38.872 48.416C39.928 48.416 40.696 48.16 41.176 47.648C41.656 47.136 41.896 46.496 41.896 45.728C41.896 44.768 41.576 43.776 40.936 42.752C40.712 42.4 40.472 42.08 40.216 41.792C39.992 41.504 39.8 41.28 39.64 41.12C39.608 41.056 39.688 40.944 39.88 40.784C40.104 40.656 40.232 40.608 40.264 40.64C40.616 40.864 40.952 41.104 41.272 41.36C41.592 41.616 41.88 41.92 42.136 42.272C42.488 42.688 42.728 43.136 42.856 43.616C43.016 44.096 43.096 44.56 43.096 45.008C43.096 45.904 42.84 46.736 42.328 47.504C41.848 48.304 41.192 48.944 40.36 49.424C39.56 49.904 38.68 50.16 37.72 50.192ZM39.31 38.144C38.99 38.144 38.718 38.08 38.494 37.952C38.27 37.824 38.158 37.584 38.158 37.232C38.158 36.784 38.27 36.272 38.494 35.696C38.718 35.12 38.974 34.56 39.262 34.016C39.55 33.44 39.806 32.976 40.03 32.624C38.91 33.808 37.742 34.928 36.526 35.984C35.918 36.496 35.246 36.976 34.51 37.424C33.774 37.872 32.99 38.096 32.158 38.096C31.838 38.096 31.614 38 31.486 37.808C31.358 37.584 31.294 37.328 31.294 37.04C31.294 36.88 31.31 36.768 31.342 36.704C31.502 35.456 31.902 34.16 32.542 32.816C33.182 31.472 33.966 30.208 34.894 29.024C35.822 27.84 36.766 26.88 37.726 26.144C38.814 25.312 40.014 24.896 41.326 24.896H46.846C47.006 24.896 47.086 24.96 47.086 25.088C47.086 25.344 46.942 25.472 46.654 25.472C46.334 25.472 46.014 25.68 45.694 26.096C45.374 26.48 45.134 26.8 44.974 27.056C44.75 27.408 44.398 28 43.918 28.832C43.438 29.664 42.942 30.576 42.43 31.568C41.95 32.528 41.534 33.424 41.182 34.256C40.83 35.088 40.654 35.696 40.654 36.08C40.654 36.528 40.878 36.752 41.326 36.752C41.806 36.752 42.35 36.528 42.958 36.08C43.566 35.632 44.174 35.088 44.782 34.448C45.422 33.776 45.998 33.12 46.51 32.48C47.054 31.808 47.486 31.28 47.806 30.896C47.998 31.088 47.982 31.36 47.758 31.712C47.566 32.032 47.39 32.288 47.23 32.48C46.59 33.312 45.854 34.176 45.022 35.072C44.19 35.936 43.278 36.672 42.286 37.28C41.326 37.856 40.334 38.144 39.31 38.144ZM34.126 36.464C34.51 36.464 35.038 36.192 35.71 35.648C36.414 35.072 37.166 34.368 37.966 33.536C38.766 32.672 39.518 31.776 40.222 30.848C40.926 29.888 41.502 29.024 41.95 28.256C42.43 27.456 42.67 26.848 42.67 26.432C42.67 26.08 42.558 25.84 42.334 25.712C42.142 25.584 41.886 25.52 41.566 25.52C41.054 25.52 40.494 25.712 39.886 26.096C39.31 26.448 38.846 26.8 38.494 27.152C38.11 27.504 37.646 28.064 37.102 28.832C36.59 29.568 36.078 30.384 35.566 31.28C35.054 32.176 34.622 33.04 34.27 33.872C33.918 34.704 33.742 35.376 33.742 35.888C33.742 36.272 33.87 36.464 34.126 36.464ZM38.1554 48.848C36.9074 48.848 35.8674 48.64 35.0354 48.224C34.1714 47.84 33.5954 47.248 33.3074 46.448C33.2754 46.352 33.2594 46.256 33.2594 46.16C33.2274 46.064 33.2114 45.952 33.2114 45.824C33.2114 45.344 33.3234 44.8 33.5474 44.192C33.7714 43.616 34.0114 42.992 34.2674 42.32C34.3634 42.128 34.4754 42.032 34.6034 42.032C34.8274 42.032 34.8914 42.192 34.7954 42.512C34.5714 42.992 34.4594 43.504 34.4594 44.048C34.4594 45.136 34.9394 46 35.8994 46.64C36.8594 47.28 37.9474 47.6 39.1634 47.6C39.6434 47.6 40.1394 47.536 40.6514 47.408C41.1314 47.312 41.5954 47.152 42.0434 46.928C43.5474 46.16 44.7794 45.136 45.7394 43.856C46.6994 42.576 47.5474 41.248 48.2834 39.872C49.4034 37.728 50.3634 35.488 51.1634 33.152C51.9954 30.784 52.8754 28.448 53.8034 26.144C53.0994 26.144 52.6034 26.16 52.3154 26.192C52.0274 26.224 51.8034 26.256 51.6434 26.288L51.5474 26.24C51.6114 25.888 51.9154 25.584 52.4594 25.328C53.0354 25.04 53.4834 24.896 53.8034 24.896H54.3794C54.7314 24.032 55.1954 23.008 55.7714 21.824C56.3794 20.64 56.9874 19.472 57.5954 18.32C58.2354 17.136 58.7954 16.144 59.2754 15.344C60.6194 13.136 62.1714 11.536 63.9314 10.544C65.6914 9.52 67.5474 9.008 69.4994 9.008C69.8834 9.008 70.2514 9.136 70.6034 9.392C70.9874 9.616 71.1634 9.968 71.1314 10.448L71.0354 11.504C73.0194 9.616 75.2594 8.672 77.7554 8.672C78.1394 8.672 78.5074 8.8 78.8594 9.056C79.2434 9.28 79.4194 9.632 79.3874 10.112L79.2434 11.84C79.2434 11.936 79.1634 11.984 79.0034 11.984C78.9394 11.984 78.9074 11.968 78.9074 11.936C78.8114 11.36 78.5074 10.912 77.9954 10.592C77.5154 10.272 76.9394 10.112 76.2674 10.112C75.7874 10.112 75.2754 10.208 74.7314 10.4C73.8354 10.688 72.9714 11.216 72.1394 11.984C71.3394 12.72 70.4754 13.888 69.5474 15.488C69.1314 16.256 68.6674 17.2 68.1554 18.32C67.6434 19.408 67.1314 20.544 66.6194 21.728C66.1394 22.912 65.6754 24 65.2274 24.992C66.2194 24.992 67.2594 24.976 68.3474 24.944C69.4354 24.912 70.4594 24.864 71.4194 24.8C72.4114 24.704 73.2434 24.608 73.9154 24.512C74.5874 24.384 74.9874 24.272 75.1154 24.176C75.2114 24.08 75.3074 24.032 75.4034 24.032C75.4674 24.032 75.4994 24.096 75.4994 24.224C75.5314 24.32 75.4994 24.432 75.4034 24.56C75.2114 24.784 74.8754 25.328 74.3954 26.192C73.9154 27.056 73.4034 28.016 72.8594 29.072C72.3474 30.096 71.8674 31.024 71.4194 31.856C70.9714 32.72 70.5874 33.552 70.2674 34.352C69.9474 35.152 69.7874 35.728 69.7874 36.08C69.7874 36.528 70.0114 36.752 70.4594 36.752C70.8754 36.752 71.4034 36.496 72.0434 35.984C72.7154 35.472 73.3874 34.864 74.0594 34.16C74.7314 33.424 75.3234 32.752 75.8354 32.144L76.8914 30.944C76.9554 31.008 76.9874 31.12 76.9874 31.28C76.9554 31.504 76.8754 31.728 76.7474 31.952C76.6194 32.144 76.4914 32.32 76.3634 32.48C75.6914 33.312 74.9554 34.176 74.1554 35.072C73.3554 35.936 72.4754 36.672 71.5154 37.28C70.5554 37.856 69.5154 38.144 68.3954 38.144C68.0754 38.144 67.8034 38.08 67.5794 37.952C67.3874 37.824 67.2914 37.584 67.2914 37.232C67.2914 36.784 67.4034 36.256 67.6274 35.648C67.8834 35.04 68.1554 34.432 68.4434 33.824C68.7634 33.216 69.0034 32.72 69.1634 32.336C69.3234 32.016 69.5314 31.568 69.7874 30.992C70.0754 30.384 70.3634 29.76 70.6514 29.12C70.9394 28.48 71.1954 27.904 71.4194 27.392C71.6754 26.848 71.8514 26.48 71.9474 26.288C71.9794 26.224 71.8834 26.16 71.6594 26.096C71.4354 26.032 70.8914 26 70.0274 26C69.4834 26 68.7794 26.016 67.9154 26.048C67.0514 26.08 65.9954 26.128 64.7474 26.192C64.0754 27.888 63.4194 29.536 62.7794 31.136C62.1394 32.736 61.4674 34.288 60.7634 35.792C60.1554 37.136 59.4034 38.56 58.5074 40.064C57.6114 41.568 56.5874 42.992 55.4354 44.336C54.2834 45.68 52.9874 46.768 51.5474 47.6C50.1394 48.432 48.5874 48.848 46.8914 48.848C45.0034 48.848 43.6274 48.416 42.7634 47.552C42.0594 47.968 41.3234 48.288 40.5554 48.512C39.7874 48.736 38.9874 48.848 38.1554 48.848ZM60.8114 15.488C60.3954 16.256 59.9314 17.2 59.4194 18.32C58.9394 19.408 58.4434 20.528 57.9314 21.68C57.4514 22.832 57.0034 23.904 56.5874 24.896H63.1154C63.4674 24.032 63.9314 23.008 64.5074 21.824C65.1154 20.64 65.7234 19.472 66.3314 18.32C66.9714 17.136 67.5314 16.144 68.0114 15.344C68.8434 14 69.7074 12.848 70.6034 11.888C70.5074 11.312 70.1554 10.864 69.5474 10.544C68.9714 10.192 68.3154 10.016 67.5794 10.016C66.9074 10.016 66.2994 10.128 65.7554 10.352C64.8914 10.704 64.0754 11.248 63.3074 11.984C62.5714 12.72 61.7394 13.888 60.8114 15.488ZM76.7474 19.664C76.2994 19.664 75.9794 19.52 75.7874 19.232C75.6594 19.072 75.5954 18.864 75.5954 18.608C75.5954 18.096 75.8354 17.68 76.3154 17.36C76.6674 17.168 76.9874 17.072 77.2754 17.072C77.7554 17.072 78.0914 17.216 78.2834 17.504C78.4114 17.664 78.4754 17.872 78.4754 18.128C78.4754 18.64 78.2194 19.056 77.7074 19.376C77.4194 19.568 77.0994 19.664 76.7474 19.664ZM47.8514 47.6C48.9074 47.6 49.8834 47.376 50.7794 46.928C52.2834 46.16 53.5154 45.136 54.4754 43.856C55.4354 42.576 56.2834 41.248 57.0194 39.872C58.1394 37.728 59.0994 35.488 59.8994 33.152C60.7314 30.784 61.6114 28.448 62.5394 26.144H56.1074C55.4354 27.84 54.7634 29.504 54.0914 31.136C53.4194 32.768 52.7314 34.32 52.0274 35.792C51.4834 36.944 50.8274 38.176 50.0594 39.488C49.3234 40.832 48.4914 42.112 47.5634 43.328C46.6354 44.544 45.5954 45.6 44.4434 46.496C45.3394 47.232 46.4754 47.6 47.8514 47.6ZM78.6512 38.672C78.5232 38.672 78.5232 38.544 78.6512 38.288C78.8112 38 78.9552 37.68 79.0832 37.328C79.2432 36.976 79.4032 36.592 79.5632 36.176C79.8832 35.408 80.2352 34.544 80.6192 33.584C81.0032 32.624 81.3712 31.696 81.7232 30.8C82.0752 29.872 82.3792 29.088 82.6352 28.448C82.9232 27.776 83.1152 27.344 83.2112 27.152C82.7632 27.632 82.2192 28.24 81.5792 28.976C80.9712 29.68 80.3952 30.368 79.8512 31.04C79.3072 31.712 78.8912 32.24 78.6032 32.624C78.5072 32.752 78.4272 32.816 78.3632 32.816C78.2992 32.816 78.2672 32.736 78.2672 32.576C78.2672 32.32 78.3472 32.08 78.5072 31.856C79.1152 31.088 79.7872 30.224 80.5232 29.264C81.2912 28.304 81.9792 27.424 82.5872 26.624C83.1952 25.792 83.5792 25.248 83.7392 24.992C84.0912 24.928 84.6032 24.832 85.2752 24.704C85.9792 24.576 86.4592 24.4 86.7152 24.176C86.8112 24.08 86.9072 24.032 87.0032 24.032C87.0672 24.032 87.0992 24.096 87.0992 24.224C87.1312 24.32 87.0992 24.432 87.0032 24.56C86.8112 24.752 86.5232 25.168 86.1392 25.808C85.7872 26.448 85.3872 27.184 84.9392 28.016C84.4912 28.848 84.0592 29.648 83.6432 30.416C83.9632 29.936 84.3792 29.376 84.8912 28.736C85.4352 28.064 86.0272 27.424 86.6672 26.816C87.3072 26.176 87.9472 25.648 88.5872 25.232C89.2592 24.816 89.8832 24.608 90.4592 24.608C90.8752 24.608 91.2272 24.704 91.5152 24.896C91.8032 25.056 92.0272 25.36 92.1872 25.808C92.2832 26.032 92.3312 26.288 92.3312 26.576C92.3312 27.12 92.1872 27.648 91.8992 28.16C91.6432 28.64 91.4512 29.008 91.3232 29.264C91.2912 29.36 91.1792 29.456 90.9872 29.552C90.7952 29.616 90.7152 29.584 90.7472 29.456C90.7792 29.296 90.7952 29.136 90.7952 28.976C90.8272 28.816 90.8432 28.64 90.8432 28.448C90.8432 27.904 90.7312 27.408 90.5072 26.96C90.3152 26.512 89.9472 26.288 89.4032 26.288C88.8912 26.288 88.2672 26.608 87.5312 27.248C86.7952 27.888 86.0592 28.624 85.3232 29.456C84.3952 30.544 83.6592 31.584 83.1152 32.576C82.5712 33.536 82.1232 34.48 81.7712 35.408C81.5792 35.92 81.3872 36.432 81.1952 36.944C81.0032 37.424 80.8592 37.808 80.7632 38.096C80.3472 38.128 79.9312 38.224 79.5152 38.384C79.0992 38.576 78.8112 38.672 78.6512 38.672ZM94.6094 38.096C94.0974 38.096 93.6334 38 93.2174 37.808C92.8334 37.584 92.6414 37.12 92.6414 36.416C92.6414 35.296 92.9294 34.176 93.5054 33.056C94.0814 31.904 94.6734 30.896 95.2814 30.032C95.8254 29.296 96.4334 28.608 97.1054 27.968C97.8094 27.296 98.5614 26.72 99.3614 26.24C99.8734 25.92 100.561 25.584 101.425 25.232C102.321 24.848 103.073 24.656 103.681 24.656C104.193 24.656 104.641 24.8 105.025 25.088C105.409 25.344 105.601 25.824 105.601 26.528C105.601 27.616 105.313 28.736 104.737 29.888C104.193 31.008 103.617 32 103.009 32.864C102.721 33.248 102.433 33.616 102.145 33.968C101.857 34.288 101.537 34.624 101.185 34.976C102.369 34.976 103.457 34.64 104.449 33.968C105.441 33.264 106.305 32.416 107.041 31.424L107.137 31.328C107.233 31.328 107.281 31.424 107.281 31.616C107.281 31.84 107.217 32.048 107.089 32.24C106.449 33.136 105.649 33.936 104.689 34.64C103.729 35.312 102.641 35.648 101.425 35.648C101.297 35.648 101.169 35.648 101.041 35.648C100.913 35.648 100.785 35.632 100.657 35.6C98.8654 37.264 96.8494 38.096 94.6094 38.096ZM95.8574 37.28C96.3054 37.28 96.7854 37.12 97.2974 36.8C97.8414 36.48 98.2574 36.176 98.5454 35.888C99.0894 35.344 99.5854 34.768 100.033 34.16C100.481 33.52 100.897 32.88 101.281 32.24C101.729 31.472 102.177 30.56 102.625 29.504C103.073 28.448 103.297 27.456 103.297 26.528C103.297 25.792 103.041 25.424 102.529 25.424C102.113 25.424 101.601 25.6 100.993 25.952C100.417 26.304 99.9854 26.624 99.6974 26.912C98.6094 28.032 97.6974 29.248 96.9614 30.56C96.5454 31.296 96.0974 32.16 95.6174 33.152C95.1374 34.144 94.8974 35.056 94.8974 35.888C94.8974 36.016 94.8974 36.144 94.8974 36.272C94.9294 36.368 94.9614 36.48 94.9934 36.608C95.1214 37.056 95.4094 37.28 95.8574 37.28Z" fill="#222222"/>
</svg>
